HIERARCHY
ROOT root
{
	OFFSET 0.000000 0.000000 0.000000
	CHANNELS 6 Xposition Yposition Zposition Zrotation Yrotation Xrotation
	JOINT lhip
	{
		OFFSET 0.058581 -0.082280 -0.017664
		CHANNELS 3 Zrotation Yrotation Xrotation
		JOINT lknee
		{
			OFFSET 0.043451 -0.386469 0.008037
			CHANNELS 3 Zrotation Yrotation Xrotation
			JOINT lankle
			{
				OFFSET -0.014790 -0.426874 -0.037428
				CHANNELS 3 Zrotation Yrotation Xrotation
				JOINT ltoe
				{
					OFFSET 0.041054 -0.060286 0.122042
					CHANNELS 3 Zrotation Yrotation Xrotation
					End Site
					{
						OFFSET 0.000000 0.000000 0.000000
					}
				}
			}
		}
	}
	JOINT rhip
	{
		OFFSET -0.060310 -0.090513 -0.013543
		CHANNELS 3 Zrotation Yrotation Xrotation
		JOINT rknee
		{
			OFFSET -0.043257 -0.383688 -0.004843
			CHANNELS 3 Zrotation Yrotation Xrotation
			JOINT rankle
			{
				OFFSET 0.019056 -0.420046 -0.034562
				CHANNELS 3 Zrotation Yrotation Xrotation
				JOINT rtoe
				{
					OFFSET -0.034840 -0.062106 0.130323
					CHANNELS 3 Zrotation Yrotation Xrotation
					End Site
					{
						OFFSET 0.000000 0.000000 0.000000
					}
				}
			}
		}
	}
	JOINT lowerback
	{
		OFFSET 0.004439 0.124404 -0.038385
		CHANNELS 3 Zrotation Yrotation Xrotation
		JOINT upperback
		{
			OFFSET 0.004488 0.137956 0.026820
			CHANNELS 3 Zrotation Yrotation Xrotation
			JOINT chest
			{
				OFFSET -0.002265 0.056032 0.002855
				CHANNELS 3 Zrotation Yrotation Xrotation
				JOINT lowerneck
				{
					OFFSET -0.013390 0.211636 -0.033468
					CHANNELS 3 Zrotation Yrotation Xrotation
					JOINT upperneck
					{
						OFFSET 0.010113 0.088937 0.050410
						CHANNELS 3 Zrotation Yrotation Xrotation
						End Site
						{
							OFFSET 0.000000 0.000000 0.000000
						}
					}
				}
				JOINT lclavicle
				{
					OFFSET 0.071702 0.114000 -0.018898
					CHANNELS 3 Zrotation Yrotation Xrotation
					JOINT lshoulder
					{
						OFFSET 0.122921 0.045205 -0.019046
						CHANNELS 3 Zrotation Yrotation Xrotation
						JOINT lelbow
						{
							OFFSET 0.255332 -0.015649 -0.022946
							CHANNELS 3 Zrotation Yrotation Xrotation
							JOINT lwrist
							{
								OFFSET 0.265709 0.012698 -0.007375
								CHANNELS 3 Zrotation Yrotation Xrotation
								End Site
								{
									OFFSET 0.000000 0.000000 0.000000
								}
							}
						}
					}
				}
				JOINT rclavicle
				{
					OFFSET -0.082954 0.112472 -0.023707
					CHANNELS 3 Zrotation Yrotation Xrotation
					JOINT rshoulder
					{
						OFFSET -0.113228 0.046853 -0.008472
						CHANNELS 3 Zrotation Yrotation Xrotation
						JOINT relbow
						{
							OFFSET -0.260127 -0.014369 -0.031269
							CHANNELS 3 Zrotation Yrotation Xrotation
							JOINT rwrist
							{
								OFFSET -0.269108 0.006794 -0.006027
								CHANNELS 3 Zrotation Yrotation Xrotation
								End Site
								{
									OFFSET 0.000000 0.000000 0.000000
								}
							}
						}
					}
				}
			}
		}
	}
}
MOTION
Frames: 14
Frame Time: 0.033333
0.605779 0.950252 1.447018 18.305867 -6.568853 82.906733 -10.436413 9.395547 -4.807797 -13.658157 0.155004 46.351866 -10.013897 5.576990 21.489209 0.000000 -0.000000 0.000000 -6.161217 2.817944 -20.538096 3.061301 4.354581 61.131849 5.126250 -8.659908 23.724192 0.000000 -0.000000 0.000000 3.447734 -1.844452 10.201665 7.587934 -7.447599 4.864019 1.264172 -7.271730 2.442078 6.458378 -3.266273 27.644663 1.273271 1.912417 -7.211037 8.245348 -2.597399 7.978669 -7.476563 29.791353 -3.604624 -6.367569 -8.058753 31.440633 -39.235658 -8.496518 30.581927 -7.758275 -0.158400 -13.030112 13.045850 2.343754 -22.479409 -41.287543 44.095467 -63.534245 -17.947120 34.575074 -58.842494 
0.603383 0.970062 1.496239 5.164601 -7.751764 86.547702 -10.999596 7.173052 -20.256732 -13.554502 7.633006 64.429979 -6.899030 3.266079 17.105878 0.000000 -0.000000 0.000000 -6.018601 6.636689 -33.713298 2.174831 2.208770 81.716616 1.312952 -7.422485 16.269562 0.000000 -0.000000 0.000000 3.996359 -1.555542 16.772499 7.279463 -4.798516 6.926936 0.870075 -7.049877 2.347109 6.007107 -7.317806 28.347773 3.137697 0.075141 -6.694524 -1.094729 2.415270 12.109833 -25.476449 43.861223 -5.566565 -7.007135 -12.709858 32.755115 -37.318785 -5.804834 24.712150 -1.512148 4.654867 -7.062397 24.868940 1.840352 -20.272645 -34.564632 41.436704 -60.973502 -10.203392 21.177584 -56.020409 
0.605382 0.994637 1.536451 -4.387892 -9.093661 90.832707 -8.774497 1.729460 -37.130385 -13.657740 10.909690 80.086521 -4.661189 -2.123340 12.198265 0.000000 -0.000000 0.000000 -8.464098 8.259573 -47.424613 -1.810281 -1.736167 98.701941 -2.349639 -8.665522 10.283532 0.000000 -0.000000 0.000000 4.680469 -1.939252 23.928680 6.215882 -2.303186 8.145314 -0.099910 -5.033580 1.524178 4.268728 -12.860632 27.196248 7.193372 -1.496402 -7.097578 -13.085990 4.114250 14.658856 -45.158192 43.882755 -11.296639 -4.514138 -18.294198 25.721585 -32.422828 -7.648632 14.929464 7.629762 10.473636 0.694768 31.161227 0.466967 -18.817541 -31.054360 39.522067 -55.119763 -6.040968 21.199068 -50.502431 
0.611721 1.018631 1.567788 -10.066966 -11.333521 94.218035 -4.055283 -4.574913 -53.157631 -13.725584 11.840750 92.024392 -3.635342 -7.439916 7.524395 0.000000 -0.000000 0.000000 -12.987592 7.058285 -59.553235 -6.172836 -5.593311 113.841119 -4.285435 -10.297189 4.545504 0.000000 -0.000000 0.000000 5.874868 -2.757349 31.986953 5.190474 -0.896213 8.972612 -1.029974 -3.667556 0.558524 4.400231 -16.115432 21.933604 10.658894 -3.139631 -9.073059 -24.843930 0.435757 16.296499 -56.090937 35.497194 -9.364181 0.290727 -20.563960 17.145106 -31.472555 -9.154208 5.576478 16.013582 15.769183 6.359846 34.568861 0.263005 -16.987182 -31.185819 37.511186 -52.762128 -1.876730 21.259779 -46.676410 
0.617740 1.036690 1.590711 -15.006832 -15.471075 96.623003 3.315412 -8.529388 -67.020998 -13.959390 12.729709 99.313555 -4.142864 -10.806360 3.534234 0.000000 -0.000000 0.000000 -16.629065 4.886182 -68.838188 -7.169476 -7.930251 126.826777 -3.732467 -8.422008 0.468266 0.000000 -0.000000 0.000000 5.997937 -2.716666 40.912064 4.289693 -0.570197 10.717431 -1.654752 -4.717105 -1.634423 5.890718 -16.440042 14.783643 13.012491 -3.714227 -11.849793 -32.404070 -6.668628 18.482850 -59.573233 26.029228 -1.840739 3.689030 -21.273928 11.653950 -25.889825 -12.931237 -3.419065 18.718821 21.009022 5.286309 38.293332 2.264698 -12.409780 -28.209143 34.997480 -48.096336 -0.361717 21.405042 -44.611852 
0.620933 1.049156 1.608840 -21.520987 -22.360626 100.181162 10.717781 -7.881874 -77.482621 -13.520709 13.715550 101.646188 -4.041398 -11.618062 0.249121 0.000000 -0.000000 0.000000 -18.089670 3.475526 -76.470823 -5.669802 -9.964706 135.429258 -1.720675 -3.663951 -0.640765 0.000000 -0.000000 0.000000 3.216350 -1.187489 49.546883 3.078347 -1.854202 12.531975 -1.405172 -5.956669 -5.271514 6.573433 -15.229220 9.221124 15.961241 -3.641478 -14.731117 -34.142728 -15.335321 19.135446 -59.560794 18.686979 2.411157 6.192931 -21.805548 5.554835 -19.458483 -13.952677 -6.913577 16.909416 27.170095 2.096896 43.204420 4.048952 -8.269056 -27.349894 33.719198 -43.071131 7.677712 20.260453 -37.275171 
0.622206 1.057873 1.622916 -28.957292 -29.950051 106.229435 15.812081 -4.320547 -83.743489 -13.412588 12.439005 100.781162 -2.802279 -10.868622 -3.000875 0.000000 -0.000000 0.000000 -16.312167 3.016958 -81.667112 -4.212565 -12.067783 138.270230 0.648497 0.119403 0.776049 0.000000 -0.000000 0.000000 0.300034 -0.546968 56.638965 1.287732 -3.434338 10.081969 -1.264638 -6.673226 -6.610771 6.142435 -14.633258 4.833138 17.545392 -4.060628 -14.741258 -32.709144 -22.749358 18.406223 -54.904309 12.476184 3.551129 8.020856 -21.719493 -0.657334 -13.396500 -13.754183 -8.045726 12.434476 31.956770 -1.904510 46.837262 3.835666 -4.552507 -28.664849 37.415887 -38.605932 12.216225 19.317035 -30.650596 
0.621835 1.065461 1.629470 -37.315141 -36.904497 115.082884 18.836351 -0.282080 -85.708548 -14.932567 9.220403 98.006745 -0.407701 -8.905664 -5.893828 0.000000 -0.000000 0.000000 -12.437042 3.610857 -83.232248 -3.029112 -14.109818 135.484174 1.501293 0.143962 1.781015 0.000000 -0.000000 0.000000 -1.876696 -1.029461 58.961170 -0.333768 -4.404445 6.924120 -1.745223 -8.099633 -5.876314 4.165476 -15.593628 1.623560 18.604029 -4.981239 -12.916986 -31.989642 -27.264998 16.904187 -43.185288 7.203358 3.247084 7.908766 -22.101837 -5.905038 -5.589324 -12.698015 -7.390192 7.285405 34.821281 -6.030694 46.861729 2.136118 -0.635122 -30.221647 45.980746 -34.749630 11.025603 20.217561 -28.610670 
0.617996 1.072993 1.625586 -48.397342 -42.289487 126.954993 20.549789 3.217049 -82.743182 -16.786624 5.072020 94.416061 0.560810 -6.975221 -6.881186 0.000000 -0.000000 0.000000 -8.377341 5.349766 -80.342978 -2.259021 -14.613616 127.856350 1.527412 -1.679261 3.243676 0.000000 -0.000000 0.000000 -4.952822 -2.093852 58.620461 -2.546538 -6.014019 3.367008 -2.950655 -8.661188 -5.164295 2.712002 -14.941439 0.292925 20.184375 -5.558649 -11.261487 -30.815989 -28.783681 13.370857 -27.929165 4.638139 1.131995 5.968344 -24.169850 -9.484647 2.361643 -13.033756 -3.640155 3.550427 36.761242 -9.016158 44.526539 0.241855 3.203069 -33.987513 57.047440 -32.584664 6.143311 21.618706 -28.040490 
0.611834 1.078699 1.608289 -61.202439 -44.450974 140.801087 22.684362 5.570885 -75.798222 -17.700615 1.211034 89.903383 -0.742273 -6.579397 -3.201852 0.000000 -0.000000 0.000000 -4.147531 7.413118 -73.460497 -1.468598 -13.472351 116.736441 -0.143736 -5.380281 6.075041 0.000000 -0.000000 0.000000 -8.306847 -3.330405 56.034242 -4.706566 -8.289514 0.345294 -3.795781 -7.668783 -5.728891 0.410944 -13.507277 0.418336 23.585365 -6.142949 -10.820890 -24.625433 -29.976201 6.922828 -19.340513 5.515383 -1.932657 6.514974 -23.262256 -5.793287 4.561683 -9.643151 16.775104 -1.837922 38.584322 -12.968835 43.123972 -2.516013 4.204584 -43.698374 68.695041 -34.494292 8.291207 22.603991 -22.612518 
0.603437 1.079584 1.574757 -72.515512 -43.131036 153.249358 24.484109 6.624502 -66.121902 -16.621401 -2.461113 83.263995 -5.404275 -7.335857 6.562573 0.000000 -0.000000 0.000000 1.188481 8.223995 -62.945384 -0.101137 -10.722994 102.862986 -2.571045 -7.948285 9.931897 0.000000 -0.000000 0.000000 -10.077245 -3.715422 51.339273 -5.905494 -9.791690 -0.429101 -3.113614 -7.942178 -8.080463 -1.818314 -12.491410 1.886317 24.081053 -5.254517 -11.178978 -18.533177 -28.870380 2.761449 -13.745418 10.386622 -4.523499 8.832393 -28.149252 5.149496 -15.718201 3.595090 30.724939 -8.060087 39.574744 -15.256371 41.577479 -2.797893 2.002027 -69.034033 78.214769 -53.943270 16.160365 21.933614 -19.202610 
0.594658 1.072835 1.524698 -81.264477 -39.865002 163.604428 25.824918 6.080823 -55.390828 -16.964676 -6.091749 74.747032 -11.211187 -6.521045 13.456796 0.000000 -0.000000 0.000000 4.965651 6.888443 -51.722843 2.795304 -7.443497 86.929433 -1.930954 -11.516298 14.205949 0.000000 -0.000000 0.000000 -11.171194 -3.307884 45.148957 -5.650072 -10.292500 -2.675172 -2.520477 -8.860700 -7.310729 -3.229407 -12.641462 1.667692 23.285683 -3.070806 -10.806563 -15.791392 -22.442958 2.865589 -6.513186 10.871559 -6.977919 4.582384 -32.343959 -12.693310 5.006266 -24.181567 -5.288256 -11.104736 36.042365 -16.031624 37.190594 2.436663 3.963139 -106.205273 80.128358 -90.076470 0.267538 26.078932 -22.175702 
0.586225 1.057477 1.456131 -86.147758 -35.377901 170.063181 25.327876 6.022154 -43.196484 -16.671934 -12.516386 65.343093 -13.757417 -6.945593 17.069833 0.000000 -0.000000 0.000000 7.019503 3.749166 -39.277415 4.350280 -4.984826 68.947075 -0.817863 -11.167547 19.130902 0.000000 -0.000000 0.000000 -10.260315 -3.642043 39.009817 -5.896007 -9.485792 -3.746123 -1.200062 -10.173156 -8.026970 -5.321107 -14.607232 4.687470 22.332833 1.157403 -11.400387 -14.726051 -15.724017 2.728383 -4.115092 14.292302 -10.135627 15.810746 -42.030098 -23.635787 11.791494 -23.274513 -7.296856 -13.572319 34.248396 -15.869851 31.443541 6.368429 1.017602 -128.705666 78.605709 -114.581237 -3.303117 27.802171 -20.791011 
0.579345 1.035525 1.368679 -89.253929 -30.600806 174.391752 23.902404 6.162490 -29.668492 -13.316992 -18.315911 53.086699 -14.765693 -5.781000 18.605506 0.000000 -0.000000 0.000000 6.905710 -1.005830 -26.378507 5.639197 -3.095947 49.353927 2.575064 -8.887352 25.886629 0.000000 -0.000000 0.000000 -8.561065 -3.419789 32.927955 -5.955217 -8.110511 -3.932083 -0.311058 -10.138797 -9.617206 -6.571119 -16.375915 8.246280 20.335192 4.145943 -12.923252 -12.276958 -11.377177 2.101482 -2.291602 17.406475 -13.133734 27.932821 -48.468981 -26.051454 11.698125 -22.875534 1.754816 -14.358530 32.101784 -14.723179 23.809115 8.554872 -4.918016 -130.536108 79.178903 -118.056276 -6.136976 29.948862 -21.043122 
